{"asset":{"generator":"g3-optimizer","version":"2.0"},"scene":0,"scenes":[{"name":"Scene","nodes":[0]}],"nodes":[{"name":"Spaceship","mesh":0}],"meshes":[{"name":"Spaceship","primitives":[{"attributes":{"POSITION":0,"COLOR_0":1},"indices":2,"mode":4}]}],"accessors":[{"bufferView":0,"byteOffset":0,"componentType":5126,"count":1999,"type":"VEC3","min":[-0.490393,-0.5,-0.17349],"max":[0.490393,0.5,0.17349]},{"bufferView":1,"byteOffset":0,"componentType":5126,"count":1999,"type":"VEC3"},{"bufferView":2,"byteOffset":0,"componentType":5123,"count":11997,"type":"SCALAR"}],"bufferViews":[{"buffer":0,"byteOffset":0,"byteLength":23988},{"buffer":0,"byteOffset":23988,"byteLength":23988},{"buffer":0,"byteOffset":47976,"byteLength":23996}],"buffers":[{"byteLength":71972,"uri":"data:application/octet-stream;base64,"}]}