{
  "asset": {"version": "2.0", "generator": "asteroid-outpost-quad-primitive"},
  "scene": 0,
  "scenes": [{"nodes": [0]}],
  "nodes": [{"mesh": 0, "name": "Quad"}],
  "meshes": [{
    "name": "Quad",
    "primitives": [{
      "attributes": {"POSITION": 0, "COLOR_0": 1},
      "indices": 2,
      "mode": 4
    }]
  }],
  "accessors": [
    {
      "bufferView": 0, "componentType": 5126, "count": 4, "type": "VEC3",
      "min": [-1.0, 0.0, -1.0], "max": [1.0, 0.0, 1.0]
    },
    {
      "bufferView": 1, "componentType": 5126, "count": 4, "type": "VEC3"
    },
    {
      "bufferView": 2, "componentType": 5123, "count": 12, "type": "SCALAR"
    }
  ],
  "bufferViews": [
    {"buffer": 0, "byteOffset": 0,  "byteLength": 48, "target": 34962},
    {"buffer": 0, "byteOffset": 48, "byteLength": 48, "target": 34962},
    {"buffer": 0, "byteOffset": 96, "byteLength": 24, "target": 34963}
  ],
  "buffers": [{
    "byteLength": 120,
    "uri": "data:application/octet-stream;base64,"
  }]
}
