{"asset":{"version":"2.0","generator":"g3-selection-frame-generator"},"scene":0,"scenes":[{"nodes":[0]}],"nodes":[{"mesh":0,"name":"SelectionFrameBold"}],"meshes":[{"name":"SelectionFrameBold","primitives":[{"attributes":{"POSITION":0,"COLOR_0":1},"indices":2,"mode":4}]}],"accessors":[{"bufferView":0,"byteOffset":0,"componentType":5126,"count":32,"type":"VEC3","min":[-0.75,-0.75,-0.22],"max":[0.75,0.75,-0.22]},{"bufferView":1,"byteOffset":0,"componentType":5126,"count":32,"type":"VEC3"},{"bufferView":2,"byteOffset":0,"componentType":5123,"count":48,"type":"SCALAR"}],"bufferViews":[{"buffer":0,"byteOffset":0,"byteLength":384},{"buffer":0,"byteOffset":384,"byteLength":384},{"buffer":0,"byteOffset":768,"byteLength":96}],"buffers":[{"byteLength":864,"uri":"data:application/octet-stream;base64,"}]}
